<svg viewBox="0 0 32 32" xmlns="http://www.w3.org/2000/svg" width="300" height="300" version="1.1" xmlns:xlink="http://www.w3.org/1999/xlink" xmlns:svgjs="http://svgjs.dev/svgjs"><g width="100%" height="100%" transform="matrix(1,0,0,1,0,0)"><g id="arrow_right-2" data-name="arrow right"><path d="m30.93 16.32a1 1 0 0 0 -.14-1.19l-10-10a1 1 0 0 0 -1.41 1.41l8.46 8.46h-25.84a1 1 0 0 0 0 2h25.5l-8.12 8.13a1 1 0 0 0 0 1.41 1 1 0 0 0 .7.29 1 1 0 0 0 .71-.29l9.66-9.66a1 1 0 0 0 .48-.56z" fill="#f36c24" fill-opacity="1" data-original-color="#000000ff" stroke="none" stroke-opacity="1"/></g></g></svg>